<svg width="2000px" height="1085px"
 viewBox="0.00 0.00 977.47 529.53" xmlns="http://www.w3.org/2000/svg" xmlns:xlink="http://www.w3.org/1999/xlink">
<g id="graph0" class="graph" transform="scale(1.0 1.0) rotate(0) translate(4 525.53)">
<title>ContextMapGraph</title>
<polygon fill="white" stroke="transparent" points="-4,4 -4,-525.53 973.47,-525.53 973.47,4 -4,4"/>
<!-- BillingContext -->
<g id="node1" class="node">
<title>BillingContext</title>
<polygon fill="none" stroke="black" stroke-width="2" points="59.26,-508.3 53.26,-506.67 47.47,-504.94 41.92,-503.14 36.63,-501.26 31.63,-499.31 26.94,-497.3 22.58,-495.23 18.56,-493.12 14.91,-490.97 11.63,-488.79 8.73,-486.58 6.24,-484.35 4.15,-482.1 2.48,-479.85 1.23,-477.6 0.39,-475.35 -0.02,-473.12 -0.01,-470.9 0.42,-468.7 1.26,-466.53 2.5,-464.4 4.13,-462.29 6.15,-460.23 8.54,-458.22 11.28,-456.25 14.36,-454.33 17.77,-452.47 21.49,-450.66 25.49,-448.92 29.76,-447.24 34.27,-445.63 39.01,-444.09 43.96,-442.62 49.08,-441.22 54.37,-439.9 59.8,-438.65 65.34,-437.49 70.98,-436.4 76.7,-435.4 82.47,-434.49 88.28,-433.66 94.11,-432.92 99.94,-432.27 105.75,-431.72 111.52,-431.25 117.25,-430.88 122.92,-430.61 128.51,-430.43 134.02,-430.35 139.43,-430.37 144.74,-430.5 149.93,-430.72 154.99,-431.05 159.93,-431.48 164.73,-432.02 169.39,-432.66 173.91,-433.4 178.28,-434.25 182.49,-435.21 186.55,-436.26 190.46,-437.42 194.2,-438.69 197.79,-440.05 201.21,-441.51 204.47,-443.06 207.56,-444.71 210.49,-446.45 213.24,-448.27 215.82,-450.18 218.23,-452.17 220.46,-454.23 222.5,-456.36 224.37,-458.55 226.04,-460.8 227.52,-463.1 228.8,-465.45 229.87,-467.84 230.74,-470.25 231.39,-472.69 231.81,-475.15 232.01,-477.61 231.97,-480.08 231.7,-482.53 231.17,-484.97 230.39,-487.38 229.35,-489.76 228.05,-492.1 226.47,-494.39 224.62,-496.62 222.49,-498.78 220.08,-500.87 217.38,-502.87 214.4,-504.79 211.14,-506.61 207.59,-508.32 203.76,-509.93 199.66,-511.42 195.28,-512.79 190.64,-514.03 185.74,-515.14 180.59,-516.12 175.21,-516.96 169.61,-517.66 163.8,-518.22 157.8,-518.63 151.62,-518.9 145.29,-519.03 138.82,-519 132.24,-518.84 125.56,-518.53 118.82,-518.08 112.03,-517.5 105.23,-516.78 98.43,-515.92 91.66,-514.94 84.96,-513.84 78.34,-512.62 71.83,-511.29 65.46,-509.84 59.26,-508.3"/>
<text text-anchor="middle" x="124.52" y="-468.85" font-family="sans-serif" font-size="16.00">BillingContext</text>
</g>
<!-- HospitalManagementSystemContext -->
<g id="node2" class="node">
<title>HospitalManagementSystemContext</title>
<polygon fill="none" stroke="black" stroke-width="2" points="368.31,-283.53 383.49,-284.26 398.39,-285.11 412.97,-286.07 427.14,-287.14 440.87,-288.31 454.09,-289.57 466.76,-290.94 478.81,-292.39 490.22,-293.93 500.92,-295.56 510.9,-297.26 520.11,-299.03 528.52,-300.87 536.1,-302.77 542.85,-304.73 548.73,-306.74 553.75,-308.8 557.88,-310.9 561.14,-313.03 563.52,-315.2 565.02,-317.39 565.66,-319.6 565.45,-321.82 564.42,-324.05 562.57,-326.28 559.94,-328.51 556.56,-330.73 552.45,-332.94 547.64,-335.12 542.18,-337.29 536.1,-339.42 529.43,-341.52 522.21,-343.58 514.5,-345.59 506.31,-347.55 497.7,-349.46 488.7,-351.31 479.35,-353.09 469.7,-354.81 459.77,-356.45 449.6,-358.02 439.24,-359.5 428.7,-360.9 418.03,-362.22 407.25,-363.43 396.39,-364.56 385.48,-365.58 374.53,-366.5 363.57,-367.32 352.62,-368.03 341.69,-368.63 330.8,-369.11 319.97,-369.49 309.21,-369.74 298.52,-369.88 287.92,-369.91 277.42,-369.81 267.02,-369.6 256.74,-369.26 246.57,-368.81 236.52,-368.24 226.6,-367.55 216.82,-366.75 207.19,-365.83 197.71,-364.8 188.38,-363.66 179.23,-362.41 170.26,-361.06 161.48,-359.6 152.9,-358.05 144.55,-356.4 136.44,-354.66 128.57,-352.84 120.99,-350.93 113.69,-348.96 106.72,-346.91 100.08,-344.8 93.81,-342.63 87.93,-340.41 82.47,-338.15 77.46,-335.84 72.92,-333.51 68.88,-331.15 65.37,-328.77 62.42,-326.39 60.06,-324 58.31,-321.61 57.21,-319.23 56.76,-316.88 57.01,-314.54 57.96,-312.24 59.64,-309.98 62.06,-307.77 65.24,-305.61 69.18,-303.51 73.89,-301.48 79.38,-299.51 85.64,-297.63 92.67,-295.83 100.47,-294.11 109.01,-292.5 118.28,-290.98 128.27,-289.56 138.94,-288.25 150.27,-287.05 162.22,-285.96 174.76,-284.99 187.84,-284.14 201.43,-283.4 215.46,-282.8 229.9,-282.31 244.68,-281.95 259.76,-281.71 275.07,-281.6 290.55,-281.62 306.13,-281.76 321.77,-282.02 337.39,-282.4 352.92,-282.9 368.31,-283.53"/>
<text text-anchor="middle" x="303.52" y="-322.24" font-family="sans-serif" font-size="16.00">HospitalManagementSystemContext</text>
</g>
<!-- BillingContext&#45;&gt;HospitalManagementSystemContext -->
<g id="edge1" class="edge">
<title>BillingContext&#45;&gt;HospitalManagementSystemContext</title>
<path fill="none" stroke="black" stroke-width="2" d="M172.48,-432.9C196.82,-413.24 226.42,-389.32 251.33,-369.2"/>
<text text-anchor="middle" x="295.02" y="-396.17" font-family="sans-serif" font-size="12.00"> &#160;&#160;&#160;&#160;&#160;&#160;&#160;&#160;&#160;&#160;&#160;&#160;&#160;&#160;&#160;&#160;&#160;&#160;&#160;&#160;&#160;&#160;&#160;&#160;&#160;&#160;&#160;&#160;&#160;&#160;&#160;&#160;&#160;&#160;&#160;&#160;&#160;&#160;&#160;</text>
<polygon fill="white" stroke="transparent" points="232.33,-359.2 232.33,-378.2 248.33,-378.2 248.33,-359.2 232.33,-359.2"/>
<polyline fill="none" stroke="black" points="248.33,-359.2 248.33,-378.2 "/>
<text text-anchor="start" x="235.33" y="-365.6" font-family="sans-serif" font-size="12.00">D</text>
<polygon fill="white" stroke="transparent" points="248.33,-359.2 248.33,-378.2 270.33,-378.2 270.33,-359.2 248.33,-359.2"/>
<polygon fill="none" stroke="black" points="248.33,-359.2 248.33,-378.2 270.33,-378.2 270.33,-359.2 248.33,-359.2"/>
<text text-anchor="start" x="251.33" y="-365.6" font-family="sans-serif" font-size="12.00">CF</text>
<polygon fill="white" stroke="transparent" points="165.48,-423.9 165.48,-440.9 179.48,-440.9 179.48,-423.9 165.48,-423.9"/>
<text text-anchor="start" x="167.48" y="-429.3" font-family="sans-serif" font-size="12.00">U</text>
</g>
<!-- HospitalPharmacyContext -->
<g id="node3" class="node">
<title>HospitalPharmacyContext</title>
<polygon fill="none" stroke="black" stroke-width="2" points="618.17,-143.35 628.82,-144.56 639.18,-145.87 649.22,-147.28 658.9,-148.78 668.17,-150.37 677,-152.04 685.35,-153.78 693.19,-155.6 700.49,-157.48 707.22,-159.42 713.35,-161.41 718.87,-163.45 723.76,-165.53 728,-167.64 731.57,-169.79 734.48,-171.95 736.72,-174.14 738.28,-176.34 739.17,-178.54 739.39,-180.75 738.95,-182.95 737.86,-185.14 736.14,-187.32 733.81,-189.48 730.87,-191.62 727.37,-193.73 723.31,-195.81 718.73,-197.85 713.65,-199.85 708.11,-201.8 702.13,-203.71 695.74,-205.56 688.99,-207.35 681.89,-209.09 674.48,-210.76 666.8,-212.36 658.88,-213.9 650.74,-215.36 642.43,-216.74 633.97,-218.04 625.39,-219.25 616.72,-220.39 607.98,-221.43 599.21,-222.38 590.42,-223.23 581.64,-223.99 572.89,-224.65 564.19,-225.21 555.55,-225.66 547,-226.01 538.54,-226.25 530.19,-226.38 521.96,-226.41 513.86,-226.32 505.9,-226.11 498.09,-225.8 490.43,-225.37 482.94,-224.83 475.61,-224.17 468.45,-223.4 461.46,-222.52 454.65,-221.53 448.03,-220.42 441.59,-219.21 435.34,-217.9 429.29,-216.47 423.44,-214.95 417.8,-213.33 412.37,-211.62 407.16,-209.82 402.18,-207.93 397.44,-205.96 392.94,-203.92 388.71,-201.8 384.74,-199.62 381.05,-197.39 377.66,-195.1 374.58,-192.77 371.82,-190.39 369.4,-187.99 367.34,-185.57 365.65,-183.12 364.34,-180.67 363.44,-178.22 362.96,-175.78 362.91,-173.35 363.31,-170.95 364.17,-168.57 365.51,-166.24 367.34,-163.95 369.66,-161.72 372.49,-159.55 375.83,-157.45 379.69,-155.42 384.07,-153.48 388.97,-151.63 394.4,-149.87 400.33,-148.22 406.78,-146.67 413.72,-145.23 421.14,-143.91 429.03,-142.71 437.38,-141.63 446.15,-140.68 455.33,-139.86 464.89,-139.17 474.8,-138.62 485.02,-138.2 495.52,-137.91 506.28,-137.76 517.24,-137.74 528.37,-137.86 539.62,-138.11 550.96,-138.49 562.33,-138.99 573.7,-139.63 585.01,-140.38 596.23,-141.26 607.29,-142.25 618.17,-143.35"/>
<text text-anchor="middle" x="540.52" y="-179.33" font-family="sans-serif" font-size="16.00">HospitalPharmacyContext</text>
</g>
<!-- HospitalManagementSystemContext&#45;&gt;HospitalPharmacyContext -->
<g id="edge2" class="edge">
<title>HospitalManagementSystemContext&#45;&gt;HospitalPharmacyContext</title>
<path fill="none" stroke="black" stroke-width="2" d="M373.02,-283.72C404.71,-264.87 442.07,-242.66 473.46,-224"/>
<text text-anchor="middle" x="504.02" y="-249.72" font-family="sans-serif" font-size="12.00"> &#160;&#160;&#160;&#160;&#160;&#160;&#160;&#160;&#160;&#160;&#160;&#160;&#160;&#160;&#160;&#160;&#160;&#160;&#160;&#160;&#160;&#160;&#160;&#160;&#160;&#160;&#160;&#160;&#160;&#160;&#160;&#160;&#160;&#160;&#160;&#160;&#160;&#160;&#160;</text>
<polygon fill="white" stroke="transparent" points="466.46,-215 466.46,-232 480.46,-232 480.46,-215 466.46,-215"/>
<text text-anchor="start" x="468.46" y="-220.4" font-family="sans-serif" font-size="12.00">D</text>
<polygon fill="white" stroke="transparent" points="338.02,-273.72 338.02,-292.72 354.02,-292.72 354.02,-273.72 338.02,-273.72"/>
<polyline fill="none" stroke="black" points="354.02,-273.72 354.02,-292.72 "/>
<text text-anchor="start" x="341.02" y="-280.12" font-family="sans-serif" font-size="12.00">U</text>
<polygon fill="white" stroke="transparent" points="354.02,-273.72 354.02,-292.72 409.02,-292.72 409.02,-273.72 354.02,-273.72"/>
<polygon fill="none" stroke="black" points="354.02,-273.72 354.02,-292.72 409.02,-292.72 409.02,-273.72 354.02,-273.72"/>
<text text-anchor="start" x="357.02" y="-280.12" font-family="sans-serif" font-size="12.00">OHS, PL</text>
</g>
<!-- MedicationAdministrationContext -->
<g id="node4" class="node">
<title>MedicationAdministrationContext</title>
<polygon fill="none" stroke="black" stroke-width="2" points="469.66,-86.06 455.87,-85.19 442.37,-84.2 429.19,-83.11 416.41,-81.92 404.07,-80.62 392.23,-79.24 380.92,-77.76 370.2,-76.2 360.1,-74.57 350.66,-72.85 341.92,-71.07 333.91,-69.22 326.64,-67.31 320.15,-65.35 314.45,-63.34 309.56,-61.29 305.48,-59.19 302.23,-57.07 299.79,-54.92 298.17,-52.75 297.36,-50.56 297.35,-48.36 298.12,-46.16 299.66,-43.95 301.95,-41.75 304.95,-39.57 308.65,-37.39 313.02,-35.24 318.02,-33.12 323.62,-31.02 329.79,-28.96 336.48,-26.94 343.67,-24.97 351.31,-23.04 359.36,-21.17 367.8,-19.36 376.57,-17.61 385.65,-15.92 395,-14.31 404.57,-12.78 414.35,-11.32 424.29,-9.94 434.36,-8.65 444.53,-7.45 454.78,-6.35 465.08,-5.34 475.41,-4.42 485.73,-3.61 496.04,-2.91 506.32,-2.31 516.54,-1.82 526.7,-1.44 536.77,-1.17 546.75,-1.02 556.63,-0.98 566.4,-1.06 576.05,-1.25 585.58,-1.57 594.96,-2 604.21,-2.54 613.32,-3.21 622.27,-3.98 631.07,-4.87 639.7,-5.88 648.17,-6.99 656.46,-8.22 664.56,-9.54 672.47,-10.98 680.17,-12.51 687.66,-14.13 694.92,-15.85 701.94,-17.65 708.71,-19.53 715.2,-21.5 721.39,-23.53 727.28,-25.63 732.84,-27.79 738.05,-30 742.88,-32.26 747.31,-34.56 751.33,-36.9 754.9,-39.26 758,-41.64 760.6,-44.03 762.69,-46.43 764.24,-48.83 765.22,-51.21 765.62,-53.58 765.41,-55.93 764.57,-58.24 763.09,-60.52 760.95,-62.74 758.14,-64.92 754.64,-67.03 750.46,-69.08 745.58,-71.06 740.01,-72.95 733.75,-74.76 726.8,-76.49 719.17,-78.11 710.87,-79.64 701.93,-81.06 692.36,-82.37 682.19,-83.57 671.43,-84.65 660.14,-85.62 648.34,-86.46 636.06,-87.18 623.36,-87.78 610.27,-88.25 596.84,-88.6 583.13,-88.81 569.18,-88.9 555.05,-88.87 540.79,-88.7 526.47,-88.42 512.14,-88.01 497.85,-87.48 483.67,-86.83 469.66,-86.06"/>
<text text-anchor="middle" x="540.52" y="-40.67" font-family="sans-serif" font-size="16.00">MedicationAdministrationContext</text>
</g>
<!-- HospitalPharmacyContext&#45;&gt;MedicationAdministrationContext -->
<g id="edge3" class="edge">
<title>HospitalPharmacyContext&#45;&gt;MedicationAdministrationContext</title>
<path fill="none" stroke="black" stroke-width="2" d="M459.51,-139.43C451.52,-129.85 448.35,-118.93 454.52,-106.93 458.46,-99.26 463.86,-92.34 470.04,-86.14"/>
<text text-anchor="middle" x="530.02" y="-110.33" font-family="sans-serif" font-size="12.00"> &#160;&#160;&#160;&#160;&#160;&#160;&#160;&#160;&#160;&#160;&#160;&#160;&#160;&#160;&#160;&#160;&#160;&#160;&#160;&#160;&#160;&#160;&#160;&#160;&#160;&#160;&#160;&#160;&#160;&#160;&#160;&#160;&#160;&#160;&#160;&#160;&#160;&#160;&#160;</text>
<polygon fill="white" stroke="transparent" points="447.04,-76.14 447.04,-95.14 463.04,-95.14 463.04,-76.14 447.04,-76.14"/>
<polyline fill="none" stroke="black" points="463.04,-76.14 463.04,-95.14 "/>
<text text-anchor="start" x="450.04" y="-82.54" font-family="sans-serif" font-size="12.00">D</text>
<polygon fill="white" stroke="transparent" points="463.04,-76.14 463.04,-95.14 493.04,-95.14 493.04,-76.14 463.04,-76.14"/>
<polygon fill="none" stroke="black" points="463.04,-76.14 463.04,-95.14 493.04,-95.14 493.04,-76.14 463.04,-76.14"/>
<text text-anchor="start" x="466.04" y="-82.54" font-family="sans-serif" font-size="12.00">ACL</text>
<polygon fill="white" stroke="transparent" points="452.51,-130.43 452.51,-147.43 466.51,-147.43 466.51,-130.43 452.51,-130.43"/>
<text text-anchor="start" x="454.51" y="-135.83" font-family="sans-serif" font-size="12.00">U</text>
</g>
<!-- MedicationAdministrationContext&#45;&gt;HospitalPharmacyContext -->
<g id="edge4" class="edge">
<title>MedicationAdministrationContext&#45;&gt;HospitalPharmacyContext</title>
<path fill="none" stroke="black" stroke-width="2" d="M601.07,-88.78C607.51,-98.31 610.24,-108.89 605.52,-119.93 602.33,-127.4 597.75,-134.4 592.48,-140.82"/>
<text text-anchor="middle" x="683.02" y="-110.33" font-family="sans-serif" font-size="12.00"> &#160;&#160;&#160;&#160;&#160;&#160;&#160;&#160;&#160;&#160;&#160;&#160;&#160;&#160;&#160;&#160;&#160;&#160;&#160;&#160;&#160;&#160;&#160;&#160;&#160;&#160;&#160;&#160;&#160;&#160;&#160;&#160;&#160;&#160;&#160;&#160;&#160;&#160;&#160;</text>
<polygon fill="white" stroke="transparent" points="585.48,-131.82 585.48,-148.82 599.48,-148.82 599.48,-131.82 585.48,-131.82"/>
<text text-anchor="start" x="587.48" y="-137.22" font-family="sans-serif" font-size="12.00">D</text>
<polygon fill="white" stroke="transparent" points="594.07,-79.78 594.07,-96.78 608.07,-96.78 608.07,-79.78 594.07,-79.78"/>
<text text-anchor="start" x="596.07" y="-85.18" font-family="sans-serif" font-size="12.00">U</text>
</g>
<!-- InventoryManagementContext -->
<g id="node5" class="node">
<title>InventoryManagementContext</title>
<polygon fill="none" stroke="black" stroke-width="2" points="657.3,-496.29 650.2,-498.72 642.65,-501.08 634.71,-503.34 626.38,-505.5 617.71,-507.56 608.72,-509.5 599.45,-511.31 589.92,-512.99 580.17,-514.53 570.22,-515.93 560.12,-517.18 549.88,-518.27 539.54,-519.2 529.13,-519.97 518.68,-520.58 508.21,-521.02 497.75,-521.3 487.33,-521.41 476.97,-521.36 466.69,-521.15 456.53,-520.77 446.5,-520.24 436.62,-519.56 426.91,-518.73 417.4,-517.77 408.09,-516.66 399.02,-515.42 390.19,-514.07 381.62,-512.59 373.32,-511.01 365.31,-509.33 357.61,-507.56 350.22,-505.71 343.16,-503.78 336.44,-501.78 330.07,-499.72 324.07,-497.62 318.43,-495.47 313.19,-493.28 308.33,-491.08 303.89,-488.85 299.85,-486.61 296.24,-484.37 293.06,-482.12 290.32,-479.89 288.03,-477.67 286.19,-475.47 284.82,-473.29 283.93,-471.14 283.51,-469.03 283.57,-466.95 284.13,-464.91 285.18,-462.91 286.73,-460.96 288.79,-459.05 291.35,-457.2 294.41,-455.39 297.98,-453.64 302.05,-451.94 306.63,-450.3 311.7,-448.71 317.27,-447.18 323.31,-445.71 329.84,-444.3 336.83,-442.94 344.28,-441.65 352.16,-440.41 360.47,-439.24 369.18,-438.13 378.28,-437.09 387.74,-436.11 397.55,-435.2 407.67,-434.36 418.08,-433.58 428.75,-432.89 439.65,-432.26 450.75,-431.72 462.02,-431.25 473.42,-430.87 484.91,-430.58 496.47,-430.37 508.04,-430.26 519.6,-430.24 531.11,-430.32 542.52,-430.49 553.8,-430.78 564.91,-431.16 575.81,-431.66 586.46,-432.27 596.82,-432.99 606.86,-433.82 616.54,-434.77 625.82,-435.83 634.68,-437.01 643.08,-438.31 651,-439.72 658.39,-441.25 665.24,-442.89 671.53,-444.64 677.23,-446.5 682.32,-448.46 686.79,-450.51 690.61,-452.67 693.8,-454.91 696.32,-457.23 698.18,-459.63 699.37,-462.1 699.89,-464.63 699.75,-467.21 698.95,-469.84 697.49,-472.5 695.39,-475.18 692.66,-477.88 689.31,-480.58 685.36,-483.28 680.82,-485.96 675.73,-488.61 670.09,-491.22 663.94,-493.78 657.3,-496.29"/>
<text text-anchor="middle" x="483.52" y="-468.85" font-family="sans-serif" font-size="16.00">InventoryManagementContext</text>
</g>
<!-- InventoryManagementContext&#45;&gt;HospitalManagementSystemContext -->
<g id="edge5" class="edge">
<title>InventoryManagementContext&#45;&gt;HospitalManagementSystemContext</title>
<path fill="none" stroke="black" stroke-width="2" d="M434.81,-432.52C409.92,-412.52 379.66,-388.21 354.47,-367.97"/>
<text text-anchor="middle" x="474.02" y="-396.17" font-family="sans-serif" font-size="12.00"> &#160;&#160;&#160;&#160;&#160;&#160;&#160;&#160;&#160;&#160;&#160;&#160;&#160;&#160;&#160;&#160;&#160;&#160;&#160;&#160;&#160;&#160;&#160;&#160;&#160;&#160;&#160;&#160;&#160;&#160;&#160;&#160;&#160;&#160;&#160;&#160;&#160;&#160;&#160;</text>
<polygon fill="white" stroke="transparent" points="335.47,-357.97 335.47,-376.97 351.47,-376.97 351.47,-357.97 335.47,-357.97"/>
<polyline fill="none" stroke="black" points="351.47,-357.97 351.47,-376.97 "/>
<text text-anchor="start" x="338.47" y="-364.37" font-family="sans-serif" font-size="12.00">D</text>
<polygon fill="white" stroke="transparent" points="351.47,-357.97 351.47,-376.97 373.47,-376.97 373.47,-357.97 351.47,-357.97"/>
<polygon fill="none" stroke="black" points="351.47,-357.97 351.47,-376.97 373.47,-376.97 373.47,-357.97 351.47,-357.97"/>
<text text-anchor="start" x="354.47" y="-364.37" font-family="sans-serif" font-size="12.00">CF</text>
<polygon fill="white" stroke="transparent" points="427.81,-423.52 427.81,-440.52 441.81,-440.52 441.81,-423.52 427.81,-423.52"/>
<text text-anchor="start" x="429.81" y="-428.92" font-family="sans-serif" font-size="12.00">U</text>
</g>
<!-- MedicalPrescriptionContext -->
<g id="node6" class="node">
<title>MedicalPrescriptionContext</title>
<polygon fill="none" stroke="black" stroke-width="2" points="956.86,-314.35 960.27,-317.12 963.16,-319.91 965.52,-322.7 967.34,-325.48 968.6,-328.24 969.29,-330.97 969.42,-333.67 968.97,-336.32 967.95,-338.91 966.35,-341.43 964.17,-343.87 961.43,-346.24 958.11,-348.51 954.25,-350.68 949.84,-352.75 944.89,-354.71 939.43,-356.56 933.47,-358.3 927.02,-359.91 920.11,-361.4 912.77,-362.76 905.01,-364 896.86,-365.11 888.35,-366.09 879.5,-366.95 870.36,-367.69 860.94,-368.3 851.28,-368.79 841.41,-369.15 831.37,-369.41 821.18,-369.55 810.89,-369.58 800.53,-369.5 790.12,-369.32 779.71,-369.05 769.33,-368.67 759.01,-368.21 748.78,-367.65 738.68,-367.02 728.73,-366.3 718.97,-365.51 709.43,-364.64 700.12,-363.7 691.08,-362.7 682.34,-361.63 673.91,-360.49 665.81,-359.3 658.08,-358.05 650.72,-356.75 643.76,-355.39 637.2,-353.98 631.07,-352.51 625.37,-351 620.12,-349.44 615.33,-347.83 610.99,-346.17 607.13,-344.47 603.74,-342.72 600.83,-340.93 598.39,-339.1 596.43,-337.22 594.96,-335.31 593.96,-333.35 593.43,-331.36 593.37,-329.34 593.78,-327.28 594.65,-325.2 595.97,-323.09 597.74,-320.96 599.94,-318.81 602.57,-316.64 605.63,-314.47 609.1,-312.29 612.96,-310.12 617.22,-307.95 621.85,-305.8 626.86,-303.67 632.22,-301.57 637.92,-299.5 643.95,-297.47 650.3,-295.5 656.96,-293.58 663.91,-291.73 671.13,-289.95 678.62,-288.26 686.35,-286.66 694.32,-285.15 702.5,-283.76 710.88,-282.47 719.45,-281.31 728.18,-280.28 737.05,-279.38 746.06,-278.62 755.18,-278.01 764.38,-277.55 773.66,-277.24 782.99,-277.09 792.34,-277.11 801.7,-277.29 811.04,-277.63 820.35,-278.15 829.58,-278.82 838.73,-279.67 847.77,-280.67 856.67,-281.84 865.41,-283.16 873.96,-284.63 882.3,-286.25 890.4,-288.02 898.24,-289.91 905.79,-291.94 913.03,-294.08 919.93,-296.33 926.46,-298.68 932.62,-301.13 938.36,-303.65 943.68,-306.25 948.55,-308.91 952.95,-311.61 956.86,-314.35"/>
<text text-anchor="middle" x="776.52" y="-322.24" font-family="sans-serif" font-size="16.00">MedicalPrescriptionContext</text>
</g>
<!-- MedicalPrescriptionContext&#45;&gt;HospitalPharmacyContext -->
<g id="edge6" class="edge">
<title>MedicalPrescriptionContext&#45;&gt;HospitalPharmacyContext</title>
<path fill="none" stroke="black" stroke-width="2" d="M706.35,-283.14C673.87,-263.75 635.58,-240.89 603.98,-222.02"/>
<text text-anchor="middle" x="707.52" y="-249.72" font-family="sans-serif" font-size="12.00">Shared Kernel</text>
</g>
</g>
</svg>
