<svg width="2000px" height="1100px"
 viewBox="0.00 0.00 973.08 534.99" xmlns="http://www.w3.org/2000/svg" xmlns:xlink="http://www.w3.org/1999/xlink">
<g id="graph0" class="graph" transform="scale(1.0 1.0) rotate(0) translate(4 530.99)">
<title>ContextMapGraph</title>
<polygon fill="white" stroke="transparent" points="-4,4 -4,-530.99 969.08,-530.99 969.08,4 -4,4"/>
<!-- BillingContext -->
<g id="node1" class="node">
<title>BillingContext</title>
<polygon fill="none" stroke="black" stroke-width="2" points="30.23,-503.94 25.9,-501.63 21.85,-499.26 18.1,-496.85 14.67,-494.39 11.56,-491.91 8.79,-489.42 6.38,-486.91 4.33,-484.4 2.66,-481.9 1.37,-479.42 0.47,-476.96 -0.04,-474.53 -0.15,-472.14 0.14,-469.8 0.83,-467.51 1.91,-465.28 3.38,-463.12 5.23,-461.02 7.46,-459 10.06,-457.06 13.01,-455.19 16.31,-453.41 19.93,-451.72 23.87,-450.12 28.11,-448.61 32.62,-447.19 37.4,-445.86 42.41,-444.63 47.65,-443.49 53.08,-442.45 58.7,-441.5 64.47,-440.65 70.37,-439.89 76.39,-439.22 82.49,-438.65 88.66,-438.16 94.88,-437.77 101.12,-437.46 107.36,-437.25 113.59,-437.12 119.77,-437.08 125.9,-437.12 131.96,-437.25 137.92,-437.47 143.78,-437.76 149.51,-438.14 155.1,-438.61 160.54,-439.15 165.82,-439.78 170.93,-440.49 175.84,-441.29 180.57,-442.16 185.09,-443.12 189.41,-444.16 193.5,-445.27 197.38,-446.47 201.04,-447.76 204.47,-449.12 207.66,-450.56 210.63,-452.07 213.36,-453.67 215.86,-455.34 218.12,-457.08 220.14,-458.9 221.93,-460.78 223.49,-462.74 224.81,-464.75 225.9,-466.83 226.76,-468.96 227.38,-471.15 227.78,-473.38 227.94,-475.66 227.88,-477.97 227.59,-480.31 227.08,-482.67 226.34,-485.05 225.37,-487.45 224.18,-489.84 222.76,-492.23 221.13,-494.61 219.26,-496.96 217.18,-499.29 214.87,-501.57 212.35,-503.81 209.6,-505.99 206.64,-508.11 203.46,-510.15 200.07,-512.12 196.46,-513.99 192.64,-515.76 188.63,-517.43 184.41,-518.98 179.99,-520.41 175.39,-521.71 170.6,-522.88 165.64,-523.91 160.52,-524.8 155.24,-525.53 149.81,-526.11 144.25,-526.54 138.57,-526.81 132.77,-526.92 126.89,-526.87 120.92,-526.65 114.9,-526.28 108.83,-525.74 102.73,-525.05 96.63,-524.21 90.53,-523.21 84.47,-522.07 78.46,-520.78 72.53,-519.36 66.68,-517.81 60.96,-516.14 55.37,-514.35 49.94,-512.45 44.69,-510.45 39.64,-508.36 34.81,-506.19 30.23,-503.94"/>
<text text-anchor="middle" x="121.65" y="-474.76" font-family="sans-serif" font-size="16.00">BillingContext</text>
</g>
<!-- HospitalManagementSystemContext -->
<g id="node2" class="node">
<title>HospitalManagementSystemContext</title>
<polygon fill="none" stroke="black" stroke-width="2" points="420.69,-369.79 407.41,-371.31 393.86,-372.72 380.1,-374.02 366.19,-375.18 352.17,-376.22 338.11,-377.13 324.04,-377.89 310.03,-378.51 296.12,-378.99 282.36,-379.32 268.78,-379.5 255.45,-379.53 242.39,-379.4 229.64,-379.13 217.24,-378.7 205.21,-378.12 193.6,-377.4 182.43,-376.53 171.71,-375.53 161.47,-374.38 151.73,-373.1 142.5,-371.69 133.8,-370.16 125.63,-368.52 118.01,-366.77 110.93,-364.91 104.4,-362.96 98.42,-360.92 92.99,-358.8 88.1,-356.61 83.76,-354.36 79.96,-352.06 76.69,-349.71 73.94,-347.32 71.71,-344.9 69.99,-342.47 68.76,-340.02 68.03,-337.57 67.79,-335.12 68.02,-332.69 68.72,-330.28 69.88,-327.9 71.49,-325.55 73.55,-323.24 76.05,-320.98 78.99,-318.78 82.36,-316.63 86.16,-314.55 90.39,-312.54 95.03,-310.6 100.1,-308.74 105.59,-306.97 111.49,-305.27 117.81,-303.67 124.53,-302.15 131.67,-300.72 139.21,-299.39 147.16,-298.15 155.5,-297 164.24,-295.95 173.36,-295 182.86,-294.15 192.73,-293.39 202.96,-292.73 213.54,-292.16 224.44,-291.69 235.66,-291.32 247.17,-291.04 258.95,-290.85 270.98,-290.76 283.24,-290.76 295.69,-290.85 308.31,-291.04 321.06,-291.31 333.9,-291.68 346.81,-292.13 359.74,-292.68 372.64,-293.31 385.49,-294.02 398.23,-294.83 410.81,-295.71 423.2,-296.69 435.35,-297.74 447.2,-298.88 458.72,-300.1 469.84,-301.4 480.54,-302.78 490.75,-304.24 500.43,-305.78 509.55,-307.38 518.05,-309.06 525.9,-310.82 533.06,-312.63 539.49,-314.52 545.17,-316.46 550.05,-318.46 554.12,-320.52 557.35,-322.63 559.73,-324.78 561.23,-326.97 561.84,-329.21 561.57,-331.47 560.4,-333.76 558.34,-336.06 555.4,-338.38 551.57,-340.71 546.88,-343.03 541.35,-345.35 535,-347.65 527.85,-349.93 519.94,-352.18 511.29,-354.4 501.94,-356.56 491.94,-358.67 481.33,-360.73 470.14,-362.71 458.44,-364.61 446.26,-366.43 433.66,-368.16 420.69,-369.79"/>
<text text-anchor="middle" x="295.65" y="-328.64" font-family="sans-serif" font-size="16.00">HospitalManagementSystemContext</text>
</g>
<!-- BillingContext&#45;&gt;HospitalManagementSystemContext -->
<g id="edge1" class="edge">
<title>BillingContext&#45;&gt;HospitalManagementSystemContext</title>
<path fill="none" stroke="black" stroke-width="2" d="M167.36,-439.69C189.61,-421.26 216.56,-398.94 240,-379.53"/>
<text text-anchor="middle" x="290.15" y="-402.53" font-family="sans-serif" font-size="12.00"> &#160;&#160;&#160;&#160;&#160;&#160;&#160;&#160;&#160;&#160;&#160;&#160;&#160;&#160;&#160;&#160;&#160;&#160;&#160;&#160;&#160;&#160;&#160;&#160;&#160;&#160;&#160;&#160;&#160;&#160;&#160;&#160;&#160;&#160;&#160;&#160;&#160;&#160;&#160;</text>
<polygon fill="white" stroke="transparent" points="221,-369.53 221,-388.53 237,-388.53 237,-369.53 221,-369.53"/>
<polyline fill="none" stroke="black" points="237,-369.53 237,-388.53 "/>
<text text-anchor="start" x="224" y="-375.93" font-family="sans-serif" font-size="12.00">D</text>
<polygon fill="white" stroke="transparent" points="237,-369.53 237,-388.53 259,-388.53 259,-369.53 237,-369.53"/>
<polygon fill="none" stroke="black" points="237,-369.53 237,-388.53 259,-388.53 259,-369.53 237,-369.53"/>
<text text-anchor="start" x="240" y="-375.93" font-family="sans-serif" font-size="12.00">CF</text>
<polygon fill="white" stroke="transparent" points="160.36,-430.69 160.36,-447.69 174.36,-447.69 174.36,-430.69 160.36,-430.69"/>
<text text-anchor="start" x="162.36" y="-436.09" font-family="sans-serif" font-size="12.00">U</text>
</g>
<!-- HospitalPharmacyContext -->
<g id="node3" class="node">
<title>HospitalPharmacyContext</title>
<polygon fill="none" stroke="black" stroke-width="2" points="472.32,-147.69 483.23,-146.66 494.25,-145.74 505.33,-144.95 516.43,-144.28 527.5,-143.75 538.5,-143.35 549.39,-143.09 560.13,-142.96 570.68,-142.98 581.01,-143.13 591.09,-143.43 600.87,-143.86 610.33,-144.44 619.45,-145.16 628.19,-146.01 636.54,-146.99 644.47,-148.11 651.98,-149.35 659.03,-150.72 665.63,-152.2 671.76,-153.8 677.41,-155.51 682.59,-157.32 687.28,-159.22 691.49,-161.21 695.22,-163.28 698.47,-165.43 701.26,-167.65 703.58,-169.92 705.44,-172.25 706.86,-174.61 707.84,-177.01 708.4,-179.44 708.54,-181.89 708.29,-184.35 707.64,-186.8 706.62,-189.26 705.24,-191.69 703.51,-194.11 701.44,-196.49 699.05,-198.84 696.34,-201.15 693.32,-203.41 690.01,-205.6 686.41,-207.74 682.54,-209.81 678.4,-211.8 673.99,-213.72 669.33,-215.55 664.41,-217.29 659.25,-218.95 653.84,-220.51 648.2,-221.97 642.32,-223.33 636.21,-224.59 629.87,-225.75 623.31,-226.8 616.52,-227.74 609.52,-228.58 602.31,-229.31 594.89,-229.93 587.26,-230.44 579.45,-230.84 571.44,-231.14 563.26,-231.32 554.92,-231.41 546.41,-231.38 537.77,-231.26 529,-231.03 520.12,-230.7 511.15,-230.27 502.11,-229.75 493.02,-229.13 483.91,-228.41 474.79,-227.6 465.7,-226.71 456.67,-225.72 447.71,-224.65 438.87,-223.5 430.17,-222.27 421.66,-220.95 413.35,-219.56 405.29,-218.1 397.5,-216.57 390.03,-214.96 382.9,-213.3 376.15,-211.57 369.82,-209.77 363.93,-207.93 358.51,-206.03 353.6,-204.08 349.23,-202.08 345.41,-200.04 342.17,-197.96 339.54,-195.85 337.53,-193.71 336.16,-191.55 335.44,-189.36 335.39,-187.16 336,-184.94 337.29,-182.73 339.26,-180.51 341.91,-178.3 345.22,-176.1 349.19,-173.92 353.8,-171.76 359.05,-169.64 364.91,-167.55 371.36,-165.5 378.37,-163.51 385.92,-161.57 393.98,-159.69 402.52,-157.88 411.49,-156.15 420.86,-154.5 430.59,-152.94 440.65,-151.47 450.98,-150.11 461.56,-148.84 472.32,-147.69"/>
<text text-anchor="middle" x="534.65" y="-185.02" font-family="sans-serif" font-size="16.00">HospitalPharmacyContext</text>
</g>
<!-- HospitalManagementSystemContext&#45;&gt;HospitalPharmacyContext -->
<g id="edge2" class="edge">
<title>HospitalManagementSystemContext&#45;&gt;HospitalPharmacyContext</title>
<path fill="none" stroke="black" stroke-width="2" d="M361.27,-292.55C395.54,-272.24 437.29,-247.51 471.23,-227.39"/>
<text text-anchor="middle" x="497.15" y="-256.15" font-family="sans-serif" font-size="12.00"> &#160;&#160;&#160;&#160;&#160;&#160;&#160;&#160;&#160;&#160;&#160;&#160;&#160;&#160;&#160;&#160;&#160;&#160;&#160;&#160;&#160;&#160;&#160;&#160;&#160;&#160;&#160;&#160;&#160;&#160;&#160;&#160;&#160;&#160;&#160;&#160;&#160;&#160;&#160;</text>
<polygon fill="white" stroke="transparent" points="464.23,-218.39 464.23,-235.39 478.23,-235.39 478.23,-218.39 464.23,-218.39"/>
<text text-anchor="start" x="466.23" y="-223.79" font-family="sans-serif" font-size="12.00">D</text>
<polygon fill="white" stroke="transparent" points="326.27,-282.55 326.27,-301.55 342.27,-301.55 342.27,-282.55 326.27,-282.55"/>
<polyline fill="none" stroke="black" points="342.27,-282.55 342.27,-301.55 "/>
<text text-anchor="start" x="329.27" y="-288.95" font-family="sans-serif" font-size="12.00">U</text>
<polygon fill="white" stroke="transparent" points="342.27,-282.55 342.27,-301.55 397.27,-301.55 397.27,-282.55 342.27,-282.55"/>
<polygon fill="none" stroke="black" points="342.27,-282.55 342.27,-301.55 397.27,-301.55 397.27,-282.55 342.27,-282.55"/>
<text text-anchor="start" x="345.27" y="-288.95" font-family="sans-serif" font-size="12.00">OHS, PL</text>
</g>
<!-- MedicationAdministrationContext -->
<g id="node4" class="node">
<title>MedicationAdministrationContext</title>
<polygon fill="none" stroke="black" stroke-width="2" points="429.2,-8.33 441.87,-6.93 454.74,-5.65 467.77,-4.48 480.92,-3.45 494.13,-2.54 507.34,-1.77 520.52,-1.14 533.61,-0.65 546.58,-0.3 559.36,-0.11 571.93,-0.06 584.24,-0.15 596.26,-0.4 607.95,-0.8 619.27,-1.35 630.21,-2.04 640.73,-2.87 650.81,-3.85 660.43,-4.96 669.57,-6.21 678.22,-7.58 686.36,-9.08 693.98,-10.69 701.08,-12.42 707.65,-14.25 713.69,-16.18 719.19,-18.19 724.17,-20.29 728.62,-22.47 732.54,-24.71 735.95,-27 738.84,-29.35 741.24,-31.74 743.14,-34.15 744.56,-36.6 745.5,-39.05 745.97,-41.52 746,-43.98 745.57,-46.43 744.72,-48.86 743.43,-51.27 741.73,-53.65 739.62,-55.99 737.11,-58.28 734.2,-60.52 730.9,-62.7 727.22,-64.81 723.16,-66.86 718.73,-68.84 713.93,-70.73 708.76,-72.55 703.22,-74.28 697.33,-75.92 691.07,-77.47 684.46,-78.92 677.5,-80.28 670.19,-81.55 662.53,-82.71 654.53,-83.78 646.19,-84.75 637.52,-85.61 628.52,-86.38 619.22,-87.05 609.61,-87.61 599.7,-88.08 589.52,-88.44 579.07,-88.71 568.38,-88.88 557.45,-88.95 546.33,-88.93 535.02,-88.81 523.56,-88.6 511.97,-88.29 500.28,-87.9 488.53,-87.41 476.74,-86.83 464.96,-86.16 453.22,-85.41 441.56,-84.57 430.02,-83.64 418.64,-82.63 407.47,-81.54 396.54,-80.36 385.91,-79.11 375.61,-77.78 365.69,-76.37 356.2,-74.88 347.16,-73.32 338.63,-71.69 330.65,-70 323.25,-68.23 316.48,-66.4 310.35,-64.51 304.92,-62.57 300.2,-60.56 296.23,-58.51 293.02,-56.41 290.6,-54.27 288.98,-52.09 288.18,-49.88 288.2,-47.64 289.06,-45.37 290.74,-43.09 293.25,-40.8 296.59,-38.51 300.73,-36.21 305.67,-33.93 311.39,-31.66 317.87,-29.41 325.07,-27.2 332.97,-25.02 341.53,-22.88 350.73,-20.8 360.52,-18.78 370.86,-16.83 381.7,-14.95 393.01,-13.15 404.72,-11.45 416.81,-9.84 429.2,-8.33"/>
<text text-anchor="middle" x="534.65" y="-43.14" font-family="sans-serif" font-size="16.00">MedicationAdministrationContext</text>
</g>
<!-- HospitalPharmacyContext&#45;&gt;MedicationAdministrationContext -->
<g id="edge3" class="edge">
<title>HospitalPharmacyContext&#45;&gt;MedicationAdministrationContext</title>
<path fill="none" stroke="black" stroke-width="2" d="M466.14,-147.97C459.13,-141.16 453,-133.47 448.65,-124.89 441.21,-110.24 447.36,-97.08 459.16,-85.96"/>
<text text-anchor="middle" x="524.15" y="-115.29" font-family="sans-serif" font-size="12.00"> &#160;&#160;&#160;&#160;&#160;&#160;&#160;&#160;&#160;&#160;&#160;&#160;&#160;&#160;&#160;&#160;&#160;&#160;&#160;&#160;&#160;&#160;&#160;&#160;&#160;&#160;&#160;&#160;&#160;&#160;&#160;&#160;&#160;&#160;&#160;&#160;&#160;&#160;&#160;</text>
<polygon fill="white" stroke="transparent" points="436.16,-75.96 436.16,-94.96 452.16,-94.96 452.16,-75.96 436.16,-75.96"/>
<polyline fill="none" stroke="black" points="452.16,-75.96 452.16,-94.96 "/>
<text text-anchor="start" x="439.16" y="-82.36" font-family="sans-serif" font-size="12.00">D</text>
<polygon fill="white" stroke="transparent" points="452.16,-75.96 452.16,-94.96 482.16,-94.96 482.16,-75.96 452.16,-75.96"/>
<polygon fill="none" stroke="black" points="452.16,-75.96 452.16,-94.96 482.16,-94.96 482.16,-75.96 452.16,-75.96"/>
<text text-anchor="start" x="455.16" y="-82.36" font-family="sans-serif" font-size="12.00">ACL</text>
<polygon fill="white" stroke="transparent" points="459.14,-138.97 459.14,-155.97 473.14,-155.97 473.14,-138.97 459.14,-138.97"/>
<text text-anchor="start" x="461.14" y="-144.37" font-family="sans-serif" font-size="12.00">U</text>
</g>
<!-- MedicationAdministrationContext&#45;&gt;HospitalPharmacyContext -->
<g id="edge4" class="edge">
<title>MedicationAdministrationContext&#45;&gt;HospitalPharmacyContext</title>
<path fill="none" stroke="black" stroke-width="2" d="M585.09,-88.7C591,-95.78 596.16,-103.57 599.65,-111.89 604.34,-123.09 601.61,-133.85 595.16,-143.56"/>
<text text-anchor="middle" x="677.15" y="-115.29" font-family="sans-serif" font-size="12.00"> &#160;&#160;&#160;&#160;&#160;&#160;&#160;&#160;&#160;&#160;&#160;&#160;&#160;&#160;&#160;&#160;&#160;&#160;&#160;&#160;&#160;&#160;&#160;&#160;&#160;&#160;&#160;&#160;&#160;&#160;&#160;&#160;&#160;&#160;&#160;&#160;&#160;&#160;&#160;</text>
<polygon fill="white" stroke="transparent" points="588.16,-134.56 588.16,-151.56 602.16,-151.56 602.16,-134.56 588.16,-134.56"/>
<text text-anchor="start" x="590.16" y="-139.96" font-family="sans-serif" font-size="12.00">D</text>
<polygon fill="white" stroke="transparent" points="578.09,-79.7 578.09,-96.7 592.09,-96.7 592.09,-79.7 578.09,-79.7"/>
<text text-anchor="start" x="580.09" y="-85.1" font-family="sans-serif" font-size="12.00">U</text>
</g>
<!-- InventoryManagementContext -->
<g id="node5" class="node">
<title>InventoryManagementContext</title>
<polygon fill="none" stroke="black" stroke-width="2" points="674.15,-471.43 676.54,-474.25 678.35,-477.07 679.57,-479.88 680.2,-482.67 680.23,-485.43 679.66,-488.15 678.48,-490.81 676.7,-493.42 674.31,-495.95 671.33,-498.4 667.75,-500.76 663.58,-503.03 658.84,-505.19 653.54,-507.24 647.69,-509.18 641.31,-511 634.41,-512.69 627.03,-514.25 619.17,-515.69 610.87,-516.99 602.14,-518.15 593.03,-519.19 583.55,-520.08 573.73,-520.85 563.61,-521.48 553.22,-521.98 542.59,-522.35 531.76,-522.6 520.76,-522.72 509.62,-522.73 498.38,-522.62 487.08,-522.39 475.75,-522.06 464.43,-521.63 453.15,-521.1 441.94,-520.48 430.85,-519.77 419.9,-518.97 409.14,-518.09 398.58,-517.14 388.26,-516.12 378.21,-515.03 368.46,-513.88 359.04,-512.66 349.97,-511.39 341.28,-510.07 332.99,-508.69 325.11,-507.27 317.68,-505.8 310.71,-504.29 304.21,-502.73 298.2,-501.14 292.69,-499.5 287.69,-497.83 283.22,-496.12 279.28,-494.38 275.87,-492.6 273.01,-490.8 270.69,-488.96 268.91,-487.08 267.68,-485.18 267,-483.26 266.85,-481.3 267.25,-479.32 268.17,-477.32 269.63,-475.3 271.6,-473.27 274.07,-471.22 277.05,-469.15 280.52,-467.08 284.47,-465.01 288.88,-462.94 293.74,-460.88 299.05,-458.83 304.77,-456.79 310.91,-454.78 317.44,-452.8 324.34,-450.85 331.61,-448.95 339.21,-447.09 347.14,-445.3 355.38,-443.57 363.9,-441.91 372.69,-440.34 381.73,-438.85 391,-437.45 400.47,-436.16 410.12,-434.98 419.94,-433.92 429.9,-432.98 439.98,-432.18 450.16,-431.51 460.41,-430.98 470.71,-430.6 481.03,-430.37 491.35,-430.29 501.65,-430.38 511.9,-430.62 522.08,-431.03 532.16,-431.6 542.11,-432.33 551.91,-433.23 561.54,-434.28 570.96,-435.5 580.15,-436.86 589.09,-438.38 597.75,-440.05 606.1,-441.85 614.13,-443.79 621.8,-445.86 629.09,-448.04 635.98,-450.33 642.44,-452.73 648.46,-455.21 654.02,-457.78 659.09,-460.41 663.65,-463.11 667.69,-465.85 671.2,-468.63 674.15,-471.43"/>
<text text-anchor="middle" x="470.65" y="-474.76" font-family="sans-serif" font-size="16.00">InventoryManagementContext</text>
</g>
<!-- InventoryManagementContext&#45;&gt;HospitalManagementSystemContext -->
<g id="edge5" class="edge">
<title>InventoryManagementContext&#45;&gt;HospitalManagementSystemContext</title>
<path fill="none" stroke="black" stroke-width="2" d="M417.67,-433.92C395.63,-415.78 370.13,-394.77 348.15,-376.67"/>
<text text-anchor="middle" x="463.15" y="-402.53" font-family="sans-serif" font-size="12.00"> &#160;&#160;&#160;&#160;&#160;&#160;&#160;&#160;&#160;&#160;&#160;&#160;&#160;&#160;&#160;&#160;&#160;&#160;&#160;&#160;&#160;&#160;&#160;&#160;&#160;&#160;&#160;&#160;&#160;&#160;&#160;&#160;&#160;&#160;&#160;&#160;&#160;&#160;&#160;</text>
<polygon fill="white" stroke="transparent" points="329.15,-366.67 329.15,-385.67 345.15,-385.67 345.15,-366.67 329.15,-366.67"/>
<polyline fill="none" stroke="black" points="345.15,-366.67 345.15,-385.67 "/>
<text text-anchor="start" x="332.15" y="-373.07" font-family="sans-serif" font-size="12.00">D</text>
<polygon fill="white" stroke="transparent" points="345.15,-366.67 345.15,-385.67 367.15,-385.67 367.15,-366.67 345.15,-366.67"/>
<polygon fill="none" stroke="black" points="345.15,-366.67 345.15,-385.67 367.15,-385.67 367.15,-366.67 345.15,-366.67"/>
<text text-anchor="start" x="348.15" y="-373.07" font-family="sans-serif" font-size="12.00">CF</text>
<polygon fill="white" stroke="transparent" points="410.67,-424.92 410.67,-441.92 424.67,-441.92 424.67,-424.92 410.67,-424.92"/>
<text text-anchor="start" x="412.67" y="-430.32" font-family="sans-serif" font-size="12.00">U</text>
</g>
<!-- MedicalPrescriptionContext -->
<g id="node6" class="node">
<title>MedicalPrescriptionContext</title>
<polygon fill="none" stroke="black" stroke-width="2" points="604.06,-313.35 609.19,-310.73 614.74,-308.19 620.71,-305.72 627.08,-303.34 633.81,-301.06 640.88,-298.89 648.28,-296.84 655.98,-294.91 663.94,-293.12 672.16,-291.46 680.6,-289.95 689.24,-288.6 698.05,-287.4 707.01,-286.36 716.1,-285.48 725.29,-284.76 734.55,-284.21 743.86,-283.83 753.21,-283.61 762.56,-283.56 771.89,-283.66 781.19,-283.93 790.43,-284.35 799.59,-284.93 808.65,-285.65 817.59,-286.51 826.39,-287.51 835.04,-288.63 843.52,-289.88 851.8,-291.24 859.88,-292.71 867.73,-294.28 875.34,-295.94 882.69,-297.69 889.77,-299.51 896.57,-301.4 903.06,-303.34 909.24,-305.34 915.1,-307.39 920.61,-309.47 925.77,-311.58 930.56,-313.71 934.98,-315.85 939.01,-318.01 942.63,-320.17 945.85,-322.33 948.64,-324.48 951,-326.62 952.93,-328.74 954.41,-330.84 955.43,-332.92 955.99,-334.97 956.08,-337 955.7,-338.99 954.84,-340.94 953.51,-342.86 951.69,-344.75 949.39,-346.59 946.61,-348.39 943.35,-350.15 939.61,-351.87 935.4,-353.54 930.73,-355.17 925.6,-356.75 920.01,-358.29 913.99,-359.77 907.54,-361.21 900.68,-362.6 893.42,-363.93 885.78,-365.21 877.78,-366.44 869.43,-367.6 860.77,-368.71 851.81,-369.75 842.57,-370.72 833.09,-371.63 823.39,-372.46 813.5,-373.22 803.45,-373.9 793.27,-374.49 782.98,-375 772.63,-375.42 762.24,-375.74 751.86,-375.96 741.5,-376.08 731.21,-376.09 721.02,-375.99 710.96,-375.78 701.07,-375.45 691.37,-375 681.91,-374.43 672.71,-373.74 663.81,-372.91 655.22,-371.96 646.99,-370.89 639.14,-369.68 631.7,-368.35 624.68,-366.89 618.12,-365.31 612.03,-363.6 606.43,-361.78 601.35,-359.84 596.78,-357.79 592.76,-355.63 589.28,-353.37 586.36,-351.02 584,-348.59 582.22,-346.08 581,-343.49 580.36,-340.85 580.29,-338.16 580.78,-335.42 581.83,-332.66 583.44,-329.87 585.59,-327.07 588.28,-324.28 591.48,-321.5 595.19,-318.74 599.39,-316.02 604.06,-313.35"/>
<text text-anchor="middle" x="772.65" y="-328.64" font-family="sans-serif" font-size="16.00">MedicalPrescriptionContext</text>
</g>
<!-- MedicalPrescriptionContext&#45;&gt;HospitalPharmacyContext -->
<g id="edge6" class="edge">
<title>MedicalPrescriptionContext&#45;&gt;HospitalPharmacyContext</title>
<path fill="none" stroke="black" stroke-width="2" d="M698.32,-287.21C667.36,-268.79 631.68,-247.56 601.55,-229.63"/>
<text text-anchor="middle" x="702.65" y="-256.15" font-family="sans-serif" font-size="12.00">Shared Kernel</text>
</g>
</g>
</svg>
